<svg version="1.1" id="Layer_1" xmlns="http://www.w3.org/2000/svg" xmlns:xlink="http://www.w3.org/1999/xlink" x="0px" y="0px"
	 width="100%" viewBox="0 0 620 592" enable-background="new 0 0 620 592" xml:space="preserve">
<path fill="#010101" opacity="1.000000" stroke="none" 
	d="
M331.000000,593.000000 
	C317.312439,593.000000 303.624878,593.000000 289.286377,592.621277 
	C279.225891,591.070068 269.734192,590.348633 260.419922,588.652832 
	C192.754318,576.333008 135.244843,545.081238 90.334862,493.003174 
	C23.489239,415.488312 2.344769,325.948364 24.645630,226.191528 
	C30.544220,199.805786 40.904537,175.017090 53.982124,151.613647 
	C50.115536,146.487793 46.201340,141.729095 42.754368,136.653107 
	C29.444658,117.053299 19.503742,95.655716 9.717623,74.179108 
	C6.931556,68.064812 3.912314,62.056767 1.000000,56.000000 
	C1.000000,53.629444 1.000000,51.258884 1.338355,48.376251 
	C7.143381,40.887398 11.962221,40.173164 19.123549,45.270878 
	C33.751980,55.683956 48.208920,66.350334 63.071461,76.417892 
	C73.321014,83.360718 84.132919,89.473351 94.629265,95.917557 
	C100.434296,90.086136 105.193542,84.958801 110.311256,80.218491 
	C155.659576,38.214336 208.882034,12.647466 270.128113,3.907576 
	C276.755402,2.961851 283.376190,1.970295 290.000000,1.000000 
	C303.687561,1.000000 317.375122,1.000000 331.701416,1.390887 
	C409.167755,7.845548 473.712219,39.594990 527.492249,95.527237 
	C535.854492,90.672203 544.625977,86.243713 552.682129,80.763626 
	C569.324890,69.442642 585.581299,57.553886 602.007202,45.913582 
	C610.579346,39.838833 615.236938,40.609035 621.000000,49.000000 
	C621.000000,50.714359 621.000000,52.428715 620.699951,54.765148 
	C605.774231,88.860550 591.747559,122.660286 568.081970,151.479950 
	C569.780762,154.677795 571.609253,157.998550 573.321960,161.377960 
	C575.048584,164.784607 576.719910,168.222122 578.313477,171.692917 
	C607.419495,235.085358 613.774780,300.787659 597.272278,368.463196 
	C583.220703,426.087372 553.966675,475.043152 510.289673,515.159912 
	C465.291779,556.489929 412.444458,581.536560 351.874329,590.100769 
	C344.918640,591.084229 337.958221,592.034424 331.000000,593.000000 
M272.317169,104.857681 
	C265.192291,108.784538 258.172241,112.924667 250.879684,116.510529 
	C248.641724,117.610977 245.482376,117.923393 243.046890,117.338776 
	C234.771790,115.352417 226.631653,112.803795 217.890015,110.313217 
	C219.385132,117.262726 220.735199,123.538078 222.186127,130.282181 
	C200.677795,138.144287 180.567871,147.598282 167.618622,167.705338 
	C154.893295,187.464691 151.641830,209.078583 153.324509,232.512039 
	C161.128159,223.678772 168.557861,215.268799 175.959198,206.890930 
	C187.706375,213.349854 198.989227,219.679565 210.442764,225.683670 
	C211.800812,226.395584 214.628540,225.982452 215.862411,224.974091 
	C222.690628,219.393921 229.227936,213.458405 235.880432,207.662445 
	C244.998016,199.718719 254.129486,191.790924 263.299744,183.817429 
	C279.372345,198.474335 295.089142,212.806793 310.991760,227.308670 
	C319.053040,219.983658 326.922760,212.847794 334.775360,205.693146 
	C342.734558,198.441345 350.676849,191.170975 358.733643,183.810928 
	C360.165436,185.022202 361.314087,185.963730 362.430023,186.942520 
	C376.692047,199.451889 391.012146,211.896423 405.149750,224.544937 
	C407.678589,226.807434 409.482056,227.009293 412.423584,225.347702 
	C423.525055,219.076797 434.796356,213.106522 446.125916,206.957611 
	C453.614716,215.443588 460.921082,223.722870 468.945923,232.816284 
	C468.945923,226.128738 469.193146,220.525116 468.873444,214.954056 
	C468.578827,209.821030 467.935516,204.674698 466.997803,199.617294 
	C460.705444,165.680542 434.348267,138.912399 400.446777,133.918732 
	C366.806519,128.963531 332.829285,127.665192 298.812958,128.026993 
	C288.510559,128.136566 278.206024,128.043961 267.408752,128.043961 
	C267.905701,126.089668 268.367218,124.375320 268.776031,122.648483 
	C270.175201,116.738144 271.555908,110.823418 273.361877,105.175613 
	C273.390625,104.896172 273.419373,104.616737 273.448120,104.337296 
	C273.311584,104.568947 273.175049,104.800598 272.317169,104.857681 
M260.351593,220.801727 
	C246.807541,232.629578 233.199112,244.385193 219.777084,256.349945 
	C217.277512,258.578094 215.453064,258.287292 212.858551,256.826202 
	C202.608231,251.053864 192.255661,245.463089 180.807266,239.183029 
	C178.525208,243.481430 174.514328,247.528336 174.518204,251.571365 
	C174.557312,292.131012 179.501541,332.268005 186.270126,372.201569 
	C186.720200,374.856873 187.535736,377.450226 188.270859,380.436279 
	C202.885727,370.376038 218.457672,365.138855 235.552948,365.105743 
	C285.869293,365.008331 336.186890,364.918762 386.501465,365.232300 
	C394.200500,365.280273 402.147308,366.633057 409.509186,368.905792 
	C417.933533,371.506531 425.832642,375.808624 434.083221,379.425507 
	C434.625885,376.994141 435.415985,374.107666 435.903503,371.170929 
	C442.178833,333.368195 446.718994,295.403198 447.808136,257.034515 
	C448.021515,249.517746 445.844635,244.317230 439.924957,239.931519 
	C428.371826,246.172226 416.719269,252.466644 404.988800,258.803162 
	C389.540497,245.281937 374.327728,231.966827 359.112396,218.649521 
	C342.842987,233.478592 327.011475,247.908508 311.099365,262.411926 
	C309.606750,261.139587 308.450836,260.210602 307.357117,259.213440 
	C293.455536,246.539383 279.555023,233.864151 265.679596,221.161545 
	C264.205811,219.812332 262.959961,217.904221 260.351593,220.801727 
M219.356857,393.738190 
	C196.782791,401.547455 183.821304,417.450714 180.344193,440.909912 
	C176.246613,468.555237 195.304337,495.230835 222.483170,498.620331 
	C245.746155,501.521515 269.174469,503.504700 292.590546,504.674835 
	C327.261841,506.407410 361.774414,503.403961 396.196411,499.173492 
	C422.799438,495.903931 441.577606,475.476990 441.999084,448.712708 
	C442.504517,416.617218 417.466278,391.121674 385.245209,391.083221 
	C336.777832,391.025421 288.309998,390.979889 239.843277,391.171906 
	C233.257828,391.197968 226.677948,392.626923 219.356857,393.738190 
M489.128113,181.887604 
	C490.070557,181.703598 491.208679,181.798599 491.926971,181.294907 
	C511.717957,167.416046 530.763000,152.626465 547.452515,135.030197 
	C556.866394,125.104912 563.694336,113.448547 570.779663,100.097580 
	C538.452820,122.190582 503.112305,132.992401 466.738953,142.311417 
	C476.905945,154.250992 484.125702,167.048950 489.128113,181.887604 
M58.030907,112.469948 
	C75.910339,142.898575 104.251297,162.169296 130.743423,181.971695 
	C138.358551,168.148468 145.637558,154.935379 152.957184,141.648560 
	C118.256348,133.049042 83.606750,121.796936 52.203152,102.341446 
	C54.037270,105.499352 55.871384,108.657265 58.030907,112.469948 
M120.010910,214.664978 
	C120.010910,212.928375 120.010910,211.191772 120.010910,209.575836 
	C103.499245,209.575836 87.775307,209.575836 71.965797,209.575836 
	C76.858154,225.589462 99.845909,238.541046 120.010910,240.602554 
	C120.010910,232.260223 120.010910,223.944031 120.010910,214.664978 
M512.536133,209.279053 
	C509.096436,209.279053 505.656738,209.279053 502.178741,209.279053 
	C502.178741,220.192276 502.178741,230.485855 502.178741,241.115784 
	C522.326416,236.727951 540.448608,229.875351 550.851440,209.279053 
	C537.740417,209.279053 525.633789,209.279053 512.536133,209.279053 
z"/>
<path fill="#FEFEFE" opacity="1.000000" stroke="none" 
	d="
M1.000000,56.468658 
	C3.912314,62.056767 6.931556,68.064812 9.717623,74.179108 
	C19.503742,95.655716 29.444658,117.053299 42.754368,136.653107 
	C46.201340,141.729095 50.115536,146.487793 53.982124,151.613647 
	C40.904537,175.017090 30.544220,199.805786 24.645630,226.191528 
	C2.344769,325.948364 23.489239,415.488312 90.334862,493.003174 
	C135.244843,545.081238 192.754318,576.333008 260.419922,588.652832 
	C269.734192,590.348633 279.225891,591.070068 288.817749,592.621277 
	C193.050919,593.000000 97.101837,593.000000 1.000000,593.000000 
	C1.000000,414.312469 1.000000,235.624893 1.000000,56.468658 
z"/>
<path fill="#FEFEFE" opacity="1.000000" stroke="none" 
	d="
M331.468658,593.000000 
	C337.958221,592.034424 344.918640,591.084229 351.874329,590.100769 
	C412.444458,581.536560 465.291779,556.489929 510.289673,515.159912 
	C553.966675,475.043152 583.220703,426.087372 597.272278,368.463196 
	C613.774780,300.787659 607.419495,235.085358 578.313477,171.692917 
	C576.719910,168.222122 575.048584,164.784607 573.321960,161.377960 
	C571.609253,157.998550 569.780762,154.677795 568.081970,151.479950 
	C591.747559,122.660286 605.774231,88.860550 620.699951,55.193611 
	C621.000000,234.238571 621.000000,413.477142 621.000000,593.000000 
	C524.645935,593.000000 428.291626,593.000000 331.468658,593.000000 
z"/>
<path fill="#FEFEFE" opacity="1.000000" stroke="none" 
	d="
M289.531342,1.000000 
	C283.376190,1.970295 276.755402,2.961851 270.128113,3.907576 
	C208.882034,12.647466 155.659576,38.214336 110.311256,80.218491 
	C105.193542,84.958801 100.434296,90.086136 94.629265,95.917557 
	C84.132919,89.473351 73.321014,83.360718 63.071461,76.417892 
	C48.208920,66.350334 33.751980,55.683956 19.123549,45.270878 
	C11.962221,40.173164 7.143381,40.887398 1.338355,47.932083 
	C1.000000,32.353756 1.000000,16.707510 1.000000,1.000000 
	C97.020889,1.000000 193.041779,1.000000 289.531342,1.000000 
z"/>
<path fill="#FEFEFE" opacity="1.000000" stroke="none" 
	d="
M621.000000,48.531342 
	C615.236938,40.609035 610.579346,39.838833 602.007202,45.913582 
	C585.581299,57.553886 569.324890,69.442642 552.682129,80.763626 
	C544.625977,86.243713 535.854492,90.672203 527.492249,95.527237 
	C473.712219,39.594990 409.167755,7.845548 332.170044,1.390887 
	C428.333344,1.000000 524.666687,1.000000 621.000000,1.000000 
	C621.000000,16.770067 621.000000,32.416374 621.000000,48.531342 
z"/>
<path fill="#FDFDFD" opacity="1.000000" stroke="none" 
	d="
M260.620300,220.566132 
	C262.959961,217.904221 264.205811,219.812332 265.679596,221.161545 
	C279.555023,233.864151 293.455536,246.539383 307.357117,259.213440 
	C308.450836,260.210602 309.606750,261.139587 311.099365,262.411926 
	C327.011475,247.908508 342.842987,233.478592 359.112396,218.649521 
	C374.327728,231.966827 389.540497,245.281937 404.988800,258.803162 
	C416.719269,252.466644 428.371826,246.172226 439.924957,239.931519 
	C445.844635,244.317230 448.021515,249.517746 447.808136,257.034515 
	C446.718994,295.403198 442.178833,333.368195 435.903503,371.170929 
	C435.415985,374.107666 434.625885,376.994141 434.083221,379.425507 
	C425.832642,375.808624 417.933533,371.506531 409.509186,368.905792 
	C402.147308,366.633057 394.200500,365.280273 386.501465,365.232300 
	C336.186890,364.918762 285.869293,365.008331 235.552948,365.105743 
	C218.457672,365.138855 202.885727,370.376038 188.270859,380.436279 
	C187.535736,377.450226 186.720200,374.856873 186.270126,372.201569 
	C179.501541,332.268005 174.557312,292.131012 174.518204,251.571365 
	C174.514328,247.528336 178.525208,243.481430 180.807266,239.183029 
	C192.255661,245.463089 202.608231,251.053864 212.858551,256.826202 
	C215.453064,258.287292 217.277512,258.578094 219.777084,256.349945 
	C233.199112,244.385193 246.807541,232.629578 260.620300,220.566132 
M333.211578,328.171082 
	C337.120392,332.594116 341.930389,334.295654 347.565247,332.304138 
	C353.379486,330.249237 355.904785,325.838806 356.381348,319.701385 
	C357.157410,309.707123 364.251709,303.050293 373.490845,303.072113 
	C382.637177,303.093719 389.357483,309.650696 390.278229,319.451447 
	C391.109100,328.295807 396.470093,333.489746 404.279541,333.016449 
	C411.925049,332.553131 416.694397,326.401825 416.232910,317.599579 
	C415.160431,297.142059 400.065125,280.816772 379.079254,277.418640 
	C360.517639,274.413055 340.389893,285.897614 333.510712,304.050751 
	C330.655487,311.585266 327.904968,319.570160 333.211578,328.171082 
M280.188812,332.986023 
	C289.693176,330.569580 292.660187,325.433167 291.147522,314.014252 
	C288.225769,291.957886 268.160797,275.640900 245.762558,277.106873 
	C223.638107,278.554871 205.823624,297.289459 205.695877,319.242920 
	C205.651260,326.910034 210.711456,332.658569 217.825104,333.022064 
	C225.075912,333.392578 230.695404,328.440765 231.656387,320.845184 
	C231.905899,318.873108 231.931473,316.829132 232.493866,314.947906 
	C234.749039,307.404205 242.320480,302.390015 250.100021,303.102997 
	C258.633026,303.885040 264.745514,310.425476 265.686432,319.780609 
	C266.570587,328.571716 270.733032,332.607025 280.188812,332.986023 
z"/>
<path fill="#FEFEFE" opacity="1.000000" stroke="none" 
	d="
M219.726166,393.572266 
	C226.677948,392.626923 233.257828,391.197968 239.843277,391.171906 
	C288.309998,390.979889 336.777832,391.025421 385.245209,391.083221 
	C417.466278,391.121674 442.504517,416.617218 441.999084,448.712708 
	C441.577606,475.476990 422.799438,495.903931 396.196411,499.173492 
	C361.774414,503.403961 327.261841,506.407410 292.590546,504.674835 
	C269.174469,503.504700 245.746155,501.521515 222.483170,498.620331 
	C195.304337,495.230835 176.246613,468.555237 180.344193,440.909912 
	C183.821304,417.450714 196.782791,401.547455 219.726166,393.572266 
M362.719299,425.926147 
	C352.576752,429.846558 347.043243,438.297211 348.475830,447.678467 
	C350.230957,459.171875 360.651093,466.848206 371.804626,464.864380 
	C382.694977,462.927338 389.921021,452.307312 387.924164,441.173798 
	C385.949127,430.162170 375.175140,423.354828 362.719299,425.926147 
M265.563293,461.154297 
	C272.878998,455.357117 275.404724,447.777466 272.695709,438.997314 
	C270.300690,431.234894 264.536469,426.414062 256.468079,425.289520 
	C248.195602,424.136597 241.457581,427.377136 236.810608,434.370605 
	C231.933731,441.710052 232.871414,451.945679 238.775940,458.369446 
	C245.780731,465.990265 254.997345,467.131226 265.563293,461.154297 
z"/>
<path fill="#FEFEFE" opacity="1.000000" stroke="none" 
	d="
M272.943665,104.910362 
	C271.555908,110.823418 270.175201,116.738144 268.776031,122.648483 
	C268.367218,124.375320 267.905701,126.089668 267.408752,128.043961 
	C278.206024,128.043961 288.510559,128.136566 298.812958,128.026993 
	C332.829285,127.665192 366.806519,128.963531 400.446777,133.918732 
	C434.348267,138.912399 460.705444,165.680542 466.997803,199.617294 
	C467.935516,204.674698 468.578827,209.821030 468.873444,214.954056 
	C469.193146,220.525116 468.945923,226.128738 468.945923,232.816284 
	C460.921082,223.722870 453.614716,215.443588 446.125916,206.957611 
	C434.796356,213.106522 423.525055,219.076797 412.423584,225.347702 
	C409.482056,227.009293 407.678589,226.807434 405.149750,224.544937 
	C391.012146,211.896423 376.692047,199.451889 362.430023,186.942520 
	C361.314087,185.963730 360.165436,185.022202 358.733643,183.810928 
	C350.676849,191.170975 342.734558,198.441345 334.775360,205.693146 
	C326.922760,212.847794 319.053040,219.983658 310.991760,227.308670 
	C295.089142,212.806793 279.372345,198.474335 263.299744,183.817429 
	C254.129486,191.790924 244.998016,199.718719 235.880432,207.662445 
	C229.227936,213.458405 222.690628,219.393921 215.862411,224.974091 
	C214.628540,225.982452 211.800812,226.395584 210.442764,225.683670 
	C198.989227,219.679565 187.706375,213.349854 175.959198,206.890930 
	C168.557861,215.268799 161.128159,223.678772 153.324509,232.512039 
	C151.641830,209.078583 154.893295,187.464691 167.618622,167.705338 
	C180.567871,147.598282 200.677795,138.144287 222.186127,130.282181 
	C220.735199,123.538078 219.385132,117.262726 217.890015,110.313217 
	C226.631653,112.803795 234.771790,115.352417 243.046890,117.338776 
	C245.482376,117.923393 248.641724,117.610977 250.879684,116.510529 
	C258.172241,112.924667 265.192291,108.784538 272.651489,104.916565 
	C272.985779,104.975441 272.943665,104.910362 272.943665,104.910362 
z"/>
<path fill="#FCFCFC" opacity="1.000000" stroke="none" 
	d="
M489.037415,181.541138 
	C484.125702,167.048950 476.905945,154.250992 466.738953,142.311417 
	C503.112305,132.992401 538.452820,122.190582 570.779663,100.097580 
	C563.694336,113.448547 556.866394,125.104912 547.452515,135.030197 
	C530.763000,152.626465 511.717957,167.416046 491.926971,181.294907 
	C491.208679,181.798599 490.070557,181.703598 489.037415,181.541138 
z"/>
<path fill="#FCFCFC" opacity="1.000000" stroke="none" 
	d="
M57.868202,112.142563 
	C55.871384,108.657265 54.037270,105.499352 52.203152,102.341446 
	C83.606750,121.796936 118.256348,133.049042 152.957184,141.648560 
	C145.637558,154.935379 138.358551,168.148468 130.743423,181.971695 
	C104.251297,162.169296 75.910339,142.898575 57.868202,112.142563 
z"/>
<path fill="#F9F9F9" opacity="1.000000" stroke="none" 
	d="
M120.010910,215.146408 
	C120.010910,223.944031 120.010910,232.260223 120.010910,240.602554 
	C99.845909,238.541046 76.858154,225.589462 71.965797,209.575836 
	C87.775307,209.575836 103.499245,209.575836 120.010910,209.575836 
	C120.010910,211.191772 120.010910,212.928375 120.010910,215.146408 
z"/>
<path fill="#F9F9F9" opacity="1.000000" stroke="none" 
	d="
M513.031677,209.279053 
	C525.633789,209.279053 537.740417,209.279053 550.851440,209.279053 
	C540.448608,229.875351 522.326416,236.727951 502.178741,241.115784 
	C502.178741,230.485855 502.178741,220.192276 502.178741,209.279053 
	C505.656738,209.279053 509.096436,209.279053 513.031677,209.279053 
z"/>
<path fill="#FEFEFE" opacity="1.000000" stroke="none" 
	d="
M273.012146,105.003845 
	C273.175049,104.800598 273.311584,104.568947 273.448120,104.337296 
	C273.419373,104.616737 273.390625,104.896172 273.152771,105.042984 
	C272.943665,104.910362 272.985779,104.975441 273.012146,105.003845 
z"/>
<path fill="#030303" opacity="1.000000" stroke="none" 
	d="
M332.995819,327.861023 
	C327.904968,319.570160 330.655487,311.585266 333.510712,304.050751 
	C340.389893,285.897614 360.517639,274.413055 379.079254,277.418640 
	C400.065125,280.816772 415.160431,297.142059 416.232910,317.599579 
	C416.694397,326.401825 411.925049,332.553131 404.279541,333.016449 
	C396.470093,333.489746 391.109100,328.295807 390.278229,319.451447 
	C389.357483,309.650696 382.637177,303.093719 373.490845,303.072113 
	C364.251709,303.050293 357.157410,309.707123 356.381348,319.701385 
	C355.904785,325.838806 353.379486,330.249237 347.565247,332.304138 
	C341.930389,334.295654 337.120392,332.594116 332.995819,327.861023 
z"/>
<path fill="#020202" opacity="1.000000" stroke="none" 
	d="
M279.774872,333.011749 
	C270.733032,332.607025 266.570587,328.571716 265.686432,319.780609 
	C264.745514,310.425476 258.633026,303.885040 250.100021,303.102997 
	C242.320480,302.390015 234.749039,307.404205 232.493866,314.947906 
	C231.931473,316.829132 231.905899,318.873108 231.656387,320.845184 
	C230.695404,328.440765 225.075912,333.392578 217.825104,333.022064 
	C210.711456,332.658569 205.651260,326.910034 205.695877,319.242920 
	C205.823624,297.289459 223.638107,278.554871 245.762558,277.106873 
	C268.160797,275.640900 288.225769,291.957886 291.147522,314.014252 
	C292.660187,325.433167 289.693176,330.569580 279.774872,333.011749 
z"/>
<path fill="#030303" opacity="1.000000" stroke="none" 
	d="
M363.116638,425.838379 
	C375.175140,423.354828 385.949127,430.162170 387.924164,441.173798 
	C389.921021,452.307312 382.694977,462.927338 371.804626,464.864380 
	C360.651093,466.848206 350.230957,459.171875 348.475830,447.678467 
	C347.043243,438.297211 352.576752,429.846558 363.116638,425.838379 
z"/>
<path fill="#030303" opacity="1.000000" stroke="none" 
	d="
M265.276428,461.384460 
	C254.997345,467.131226 245.780731,465.990265 238.775940,458.369446 
	C232.871414,451.945679 231.933731,441.710052 236.810608,434.370605 
	C241.457581,427.377136 248.195602,424.136597 256.468079,425.289520 
	C264.536469,426.414062 270.300690,431.234894 272.695709,438.997314 
	C275.404724,447.777466 272.878998,455.357117 265.276428,461.384460 
z"/>
</svg>